<svg width="122" height="64" viewBox="0 0 122 64" fill="none" xmlns="http://www.w3.org/2000/svg">
<path d="M0.341166 50.3359H18.5311C18.5737 50.3359 18.5949 50.3572 18.5949 50.3998V53.4421C18.5949 53.4846 18.5737 53.5059 18.5311 53.5059H0.341166C0.298616 53.5059 0.277344 53.4846 0.277344 53.4421V50.3998C0.277344 50.3572 0.298616 50.3359 0.341166 50.3359ZM0.341166 55.5483H18.5311C18.5737 55.5483 18.5949 55.5695 18.5949 55.6121V58.3778C18.5949 58.4204 18.5737 58.4416 18.5311 58.4416H0.341166C0.298616 58.4416 0.277344 58.4204 0.277344 58.3778V55.6121C0.277344 55.5695 0.298616 55.5483 0.341166 55.5483ZM0.341166 60.5053H18.5311C18.5737 60.5053 18.5949 60.5266 18.5949 60.5478V63.5901C18.5949 63.6327 18.5737 63.654 18.5311 63.654H0.341166C0.298616 63.654 0.277344 63.6327 0.277344 63.5901V60.5478C0.277344 60.5266 0.298616 60.5053 0.341166 60.5053Z" fill="white"/>
<path d="M19.9136 50.3359H25.9131C26.0195 50.3359 26.2961 50.5912 26.7641 51.1231C26.9131 51.2295 27.913 52.1868 29.8064 53.9952H29.8277C32.1254 51.7826 33.4231 50.57 33.6784 50.3359H39.7418C39.7843 50.3359 39.8056 50.3572 39.8056 50.3998C39.5077 50.6551 37.2313 52.8251 32.9551 56.9524V56.9737C33.0827 57.1226 35.3804 59.3352 39.8481 63.6327L39.8056 63.654H33.7423C33.4444 63.3987 32.1467 62.1647 29.8702 59.9521H29.849C27.5726 62.1647 26.2748 63.3987 25.977 63.654H19.9349C19.8924 63.654 19.8711 63.6327 19.8711 63.5901C20.2115 63.2923 22.4879 61.101 26.7641 56.9949V56.9524C26.5939 56.7609 24.2963 54.5483 19.9136 50.3359Z" fill="white"/>
<path d="M48.9092 50.3359H53.1429C53.228 50.421 54.1003 51.8677 55.7597 54.6973C59.1211 60.3989 60.8656 63.3774 61.0146 63.6327V63.654H56.1214C56.015 63.5476 54.4832 60.9946 51.5898 56.0163C51.2282 55.4206 51.058 55.1228 51.0367 55.1228C47.7604 60.6755 46.0797 63.5263 45.9946 63.654H41.0801V63.5901C46.1009 55.0589 48.7177 50.6338 48.9092 50.3359Z" fill="white"/>
<path d="M62.3341 50.3359H76.3755C77.6519 50.3359 78.7582 50.8253 79.7156 51.8039C80.29 52.4847 80.5879 53.208 80.5879 53.9739V56.3993C80.5879 57.6545 79.9071 58.6757 78.5242 59.5054L77.9924 59.7394L80.5879 63.654L80.524 63.6752H75.4819C75.3543 63.5263 74.5246 62.3136 73.0141 60.016H66.5465V63.6114C66.5465 63.654 66.5252 63.6752 66.4827 63.6752H62.3554C62.3128 63.6752 62.2915 63.654 62.2915 63.6114V50.3998C62.2703 50.3572 62.2916 50.3359 62.3341 50.3359ZM66.5252 53.5059V56.846H74.6097C75.4607 56.846 76.0138 56.4631 76.2478 55.7185C76.2904 55.5483 76.2904 55.3781 76.2904 55.2079C76.2904 54.3994 75.95 53.8676 75.2904 53.6123C75.0777 53.5484 74.865 53.5272 74.6522 53.5272H66.5252V53.5059Z" fill="white"/>
<path d="M81.888 50.3359H100.078C100.121 50.3359 100.142 50.3572 100.142 50.3998V53.4421C100.142 53.4846 100.121 53.5059 100.078 53.5059H93.1424V63.6114C93.1424 63.654 93.1211 63.6752 93.0786 63.6752H88.93C88.8874 63.6752 88.8662 63.654 88.8662 63.6114V53.5059H81.888C81.8455 53.5059 81.8242 53.4846 81.8242 53.4421V50.3998C81.8242 50.3572 81.8455 50.3359 81.888 50.3359Z" fill="white"/>
<path d="M109.224 50.3359H113.457C113.542 50.421 114.415 51.8677 116.074 54.6973C119.436 60.3989 121.18 63.3774 121.329 63.6327V63.654H116.436C116.329 63.5476 114.798 60.9946 111.904 56.0163C111.543 55.4206 111.372 55.1228 111.351 55.1228C108.075 60.6755 106.394 63.5263 106.309 63.654H101.395V63.5901C106.415 55.0589 109.032 50.6338 109.224 50.3359Z" fill="white"/>
<path d="M93.9511 5.27734H85.4199V21.8504H93.9511V5.27734Z" fill="#B9998A"/>
<path d="M93.9511 22.3418H85.4199V28.1073H93.9511V22.3418Z" fill="#B9998A"/>
<path d="M82.1644 12.2969H73.8672V21.8493H82.1644V12.2969Z" fill="#B0B98A"/>
<path d="M82.1644 22.3359H73.8672V39.4196H82.1644V22.3359Z" fill="#B0B98A"/>
<path d="M57.5313 7.53125H50V14.5732H57.5313V7.53125Z" fill="#F68C5B"/>
<path d="M57.5313 22.3398H50V39.9128H57.5313V22.3398Z" fill="#F68C5B"/>
<path d="M57.5313 15.0625H50V21.8492H57.5313V15.0625Z" fill="#F68C5B"/>
<path d="M47.743 0.742188H39.7012V14.5495H47.743V0.742188Z" fill="#F27185"/>
<path d="M47.743 15.0605H39.7012V31.8889H47.743V15.0605Z" fill="#F27185"/>
<path d="M34.7021 15.0625H27.6602V28.6145H34.7021V15.0625Z" fill="#BC679C"/>
<path d="M34.7021 12.2969H27.6602V14.552H34.7021V12.2969Z" fill="#BC679C"/>
<path d="M70.0996 1.76367H62.5684V5.27401H70.0996V1.76367Z" fill="#F9A03B"/>
<path d="M70.0996 5.76367H62.5684V21.8261H70.0996V5.76367Z" fill="#F9A03B"/>
<path d="M70.0996 22.3359H62.5684V31.633H70.0996V22.3359Z" fill="#F9A03B"/>
</svg>
